HIERARCHY
ROOT Hips
{
	OFFSET	0.00	0.00	0.00
	CHANNELS 6 Xposition Yposition Zposition Zrotation Xrotation Yrotation
	JOINT Spine
	{
		OFFSET	 0.00	0.01	 0.00
		CHANNELS 3 Zrotation Xrotation Yrotation
		JOINT Spine1
		{
			OFFSET	 0.00	 2.45913012437421	 0.00
			CHANNELS 3 Zrotation Xrotation Yrotation
            JOINT Neck
            {
                OFFSET	 0.00	 2.48462964506057	 0.00
                CHANNELS 3 Zrotation Xrotation Yrotation
                JOINT Head
                {
                    OFFSET	 0.00	 0.927524780924562	 0.00
                    CHANNELS 3 Zrotation Xrotation Yrotation
                    End Site 
                    {
                        OFFSET	 0.00	 1.14999962169752	 0.00
                    }
                }
            }
			JOINT LeftShoulder
			{
				OFFSET	 0.00	 2.48462964506057	 0.00
				CHANNELS 3 Zrotation Xrotation Yrotation
				JOINT LeftUpArm
				{
					OFFSET	 0.00	 1.24881979654096	 0.00
					CHANNELS 3 Zrotation Xrotation Yrotation
					JOINT LeftForeArm
					{
						OFFSET	 0.00	2.59758046908119	 0.00
						CHANNELS 3 Zrotation Xrotation Yrotation
						JOINT LeftHand
						{
							OFFSET	 0.00	2.45542024364365	 0.00
							CHANNELS 3 Zrotation Xrotation Yrotation
							JOINT LeftHandThumb 
							{
								OFFSET	 0.00	0.00	 0.00
								CHANNELS 3 Zrotation Xrotation Yrotation
								End Site
								{
									OFFSET	 0.00	0.00	1.00000003353624
								}
							}
							JOINT L_Wrist_End 
							{
								OFFSET	 0.00	0.99999967115358	 0.00
								CHANNELS 3 Zrotation Xrotation Yrotation
								End Site 
								{
									OFFSET	 0.00	 0.00	 0.00
								}
							}
						}
					}
				}
			}
			JOINT RightShoulder
			{
				OFFSET	 0.00	 2.48462964506057	 0.00
				CHANNELS 3 Zrotation Xrotation Yrotation
				JOINT RightUpArm
				{
					OFFSET	 0.00	 1.24881979654096	 0.00
					CHANNELS 3 Zrotation Xrotation Yrotation
					JOINT RightForeArm
					{
						OFFSET	 0.00	2.59758046908119	 0.00
						CHANNELS 3 Zrotation Xrotation Yrotation
						JOINT RightHand
						{
							OFFSET	 0.00	2.45542024364365	 0.00
							CHANNELS 3 Zrotation Xrotation Yrotation
							JOINT RightHandThumb 
							{
								OFFSET	 0.00	0.00	 0.00
								CHANNELS 3 Zrotation Xrotation Yrotation
								End Site
								{
									OFFSET	 0.00	0.00	1.00000003353624
								}
							}
							JOINT R_Wrist_End 
							{
								OFFSET	 0.00	0.99999967115358	 0.00
								CHANNELS 3 Zrotation Xrotation Yrotation
								End Site 
								{
									OFFSET	 0.00	 0.00	 0.00
								}
							}
						}
					}
				}
			}
		}
	}
	JOINT LeftUpLeg
	{
		OFFSET	 1.2719394002717	 0.00	 0.00
		CHANNELS 3 Zrotation Xrotation Yrotation
		JOINT LeftLowLeg
		{
			OFFSET	 0.00	-4.3429100912261	 0.00
			CHANNELS 3 Zrotation Xrotation Yrotation
			JOINT LeftFoot
			{
				OFFSET	 0.00	-4.48767017425826	 0.00
				CHANNELS 3 Zrotation Xrotation Yrotation
				JOINT LeftToeBase
                {
                    OFFSET	 0.00	0.00	 1.51507020887566
                    CHANNELS 3 Zrotation Xrotation Yrotation
                    End Site 
                    {
                        OFFSET	 0.00	0.00	 0.75000010571191
                    }
                }
			}
		}
	}
	JOINT RightUpLeg
	{
		OFFSET	 -1.2719393604653	 0.00	 0.00
		CHANNELS 3 Zrotation Xrotation Yrotation
		JOINT RightLowLeg
		{
			OFFSET	 0.00	-4.3429100912261	 0.00
			CHANNELS 3 Zrotation Xrotation Yrotation
			JOINT RightFoot
			{
				OFFSET	 0.00	-4.48767017425826	 0.00
				CHANNELS 3 Zrotation Xrotation Yrotation
				JOINT RightToeBase
                {
                    OFFSET	 0.00	0.00	 1.51507020887566
                    CHANNELS 3 Zrotation Xrotation Yrotation
                    End Site 
                    {
                        OFFSET	 0.00	0.00	 0.749999965609858
                    }
                }   
			}
		}
	}
}
MOTION 
Frames:	8 
Frame Time: 0.02 
  -2.867919921875 -2.023000030517578 9.639180297851562 116.912 7.59153 185.805 -1.16069 26.8536 29.8396 3.58504 9.6274 -26.5427 5.91512 69.3703 -11.2676 125.16 -70.98 128.232 -112.3884 5.34058 1.38737 48.5944 50.1757 -50.1708 0.0 56.5457 0.0 34.2217 -2.60525 62.7062 0.0 0.0 0.0 0.0 0.0 0.0 106.9806 1.78562 -5.13852 -52.656 53.1339 73.9779 0.0 44.2958 0.0 -30.9231 -7.40049 -53.0409 0.0 0.0 0.0 0.0 0.0 0.0 123.159 -81.4301 162.617 0.0 37.7658 0.0 -7.78287 -5.1754 4.58333 0.0 -9.11102 0.0 178.82 -68.7755 -160.096 0.0 49.2859 0.0 27.5556 -2.5161 -3.99528 0.0 -8.65726 0.0 
  -2.8645401000976562 -2.032409973144531 9.6381201171875 116.929 7.44281 185.817 -1.1919 26.8076 29.84 3.57722 9.53684 -26.5637 5.8937 69.2276 -11.2379 125.036 -71.0217 128.032 -112.0341 5.29501 0.772727 47.8466 50.6749 -49.7204 0.0 56.5155 0.0 34.1668 -2.83369 63.0375 0.0 0.0 0.0 0.0 0.0 0.0 107.0661 1.90476 -5.35098 -52.9648 53.3149 74.6639 0.0 44.4902 0.0 -31.0392 -8.19895 -54.2163 0.0 0.0 0.0 0.0 0.0 0.0 124.524 -81.3814 163.893 0.0 37.8515 0.0 -7.75506 -5.230301 4.70847 0.0 -9.110371 0.0 179.003 -68.6392 -159.861 0.0 49.2627 0.0 27.6127 -2.5373993 -3.94199 0.0 -8.31451 0.0 
  -2.860379943847656 -2.0409800720214846 9.638090209960938 116.947 7.31154 185.827 -1.239 26.7847 29.8658 3.62413 9.40547 -26.5607 5.51903 69.024 -10.8502 125.153 -71.1749 128.01 -111.9802 5.40075 0.942422 48.0664 50.2991 -49.8214 0.0 56.4791 0.0 34.1663 -3.11288 62.7513 0.0 0.0 0.0 0.0 0.0 0.0 107.0888 1.88792 -5.48159 -53.3361 53.5676 75.3603 0.0 44.6618 0.0 -31.2002 -8.19586 -53.7813 0.0 0.0 0.0 0.0 0.0 0.0 125.903 -81.3568 165.091 0.0 37.8954 0.0 -7.77236 -5.256901 4.86025 0.0 -9.17467 0.0 179.144 -68.501 -159.685 0.0 49.2949 0.0 27.6269 -2.5835 -4.023 0.0 -8.824961 0.0 
  -2.857430114746094 -2.0504800415039064 9.639140014648438 117.131 7.32022 185.794 -1.2058 26.8655 29.9198 3.73917 9.2366 -26.441 5.7758 68.8596 -11.2105 125.117 -71.2155 127.965 -111.4223 5.32622 0.0887265 47.0025 51.1127 -49.1883 0.0 56.3797 0.0 34.161 -3.16192 62.8215 0.0 0.0 0.0 0.0 0.0 0.0 107.075 1.91484 -5.51314 -53.2518 53.7653 75.6327 0.0 44.9343 0.0 -31.3874 -8.2086 -54.007 0.0 0.0 0.0 0.0 0.0 0.0 126.802 -81.3537 165.683 0.0 37.9739 0.0 -7.7393 -5.2791004 5.03658 0.0 -9.18199 0.0 179.433 -68.5588 -159.548 0.0 49.264 0.0 27.6299 -2.6396008 -4.04882 0.0 -8.84115 0.0 
  -2.855299987792969 -2.059739990234375 9.6414501953125 117.319 7.4065 185.701 -1.136 27.0307 29.9111 3.74053 9.02087 -26.3595 4.94422 68.8535 -10.2937 125.816 -71.4001 128.43 -110.849304 5.46183 -0.615746 45.6999 51.4353 -48.2691 0.0 56.3493 0.0 34.2741 -2.95926 63.624 0.0 0.0 0.0 0.0 0.0 0.0 107.1617 2.09898 -5.61476 -53.1926 54.0042 75.658 0.0 45.1195 0.0 -31.6945 -7.89341 -54.2872 0.0 0.0 0.0 0.0 0.0 0.0 127.091 -81.3627 165.6 0.0 38.0312 0.0 -7.74831 -5.3139 5.21097 0.0 -9.22256 0.0 179.647 -68.7243 -159.571 0.0 49.156 0.0 27.4716 -2.662901 -4.10859 0.0 -8.557381 0.0 
  -2.8522799682617186 -2.0685000610351563 9.643720092773437 117.681 7.58517 185.558 -1.11297 27.1808 29.9944 4.2242 8.78316 -26.1744 3.19627 68.3723 -8.56914 127.389 -71.969 129.657 -110.8019 6.27763 -0.525701 45.2478 50.3545 -47.6547 0.0 56.5796 0.0 34.1234 -2.94697 63.8159 0.0 0.0 0.0 0.0 0.0 0.0 107.161896 2.04342 -5.7867 -53.6129 54.1232 75.5975 0.0 45.3261 0.0 -31.8926 -7.33125 -54.3371 0.0 0.0 0.0 0.0 0.0 0.0 127.454 -81.3596 165.329 0.0 38.1426 0.0 -7.76158 -5.3645 5.47445 0.0 -9.210831 0.0 -179.99 -69.0191 -159.616 0.0 48.9701 0.0 27.5025 -2.6618996 -4.02186 0.0 -8.14259 0.0 
  -2.84885009765625 -2.077120056152344 9.646300048828126 118.035 7.70351 185.41 -0.74804 27.3185 29.6486 4.05592 8.71294 -26.2374 -0.0676564 67.6598 -5.14394 129.833 -72.7327 131.819 -110.1254 6.99062 -0.717342 43.7913 49.2093 -46.7347 0.0 57.0591 0.0 34.5571 -3.12765 63.8668 0.0 0.0 0.0 0.0 0.0 0.0 107.4162 2.55348 -6.10368 -53.5382 54.3779 74.5514 0.0 45.7138 0.0 -32.1169 -5.53175 -52.4061 0.0 0.0 0.0 0.0 0.0 0.0 128.243 -81.3308 165.429 0.0 38.2407 0.0 -7.74825 -5.4120007 5.82395 0.0 -9.27021 0.0 -179.597 -69.2531 -159.662 0.0 48.7767 0.0 27.5737 -2.6560993 -4.11222 0.0 -8.914801 0.0 
  -2.843500061035156 -2.084320068359375 9.647780151367188 118.428 7.68405 185.286 -0.446442 27.3388 29.3714 3.9835 8.49289 -26.2616 -3.58518 66.2145 -1.72453 132.683 -73.8589 134.895 -109.4713 8.1113 -0.755912 41.8634 47.9463 -46.3078 0.0 57.7988 0.0 34.8966 -2.60149 64.7629 0.0 0.0 0.0 0.0 0.0 0.0 107.5595 2.86233 -6.49666 -53.2319 54.7297 72.7646 0.0 46.1571 0.0 -32.0871 -3.41117 -51.6049 0.0 0.0 0.0 0.0 0.0 0.0 130.167 -81.2201 166.557 0.0 38.3613 0.0 -7.76226 -5.4654007 6.24711 0.0 -9.2952 0.0 -179.079 -69.3024 -159.652 0.0 48.641 0.0 27.5226 -2.6354008 -4.00574 0.0 -8.43499 0.0 
